<svg width="32" height="32" viewBox="0 0 32 32" fill="none" xmlns="http://www.w3.org/2000/svg">
  <rect width="32" height="32" rx="10" fill="url(#paint0_linear)"/>
  
  <g transform="translate(4, 4) scale(1)">
    <path fill-rule="evenodd" clip-rule="evenodd" d="M9.315 7.584C12.195 3.883 16.695 1.5 21.75 1.5a.75.75 0 01.75.75c0 5.056-2.383 9.555-6.084 12.436h.001c-3.7 2.881-8.199 5.264-13.254 5.264a.75.75 0 01-.75-.75c0-5.055 2.383-9.555 6.084-12.436z" fill="white"/>
    <path d="M4.75 6a.75.75 0 00-.75.75v10.5c0 .414.336.75.75.75h10.5a.75.75 0 00.75-.75v-10.5a.75.75 0 00-.75-.75H4.75z" fill="white"/>
  </g>

  <defs>
    <linearGradient id="paint0_linear" x1="0" y1="0" x2="32" y2="32" gradientUnits="userSpaceOnUse">
      <stop stop-color="#3B82F6"/> <stop offset="1" stop-color="#22D3EE"/> </linearGradient>
  </defs>
</svg>
